<svg width="51" height="61" viewBox="0 0 51 61" fill="none" xmlns="http://www.w3.org/2000/svg">
<path d="M1.35596 13.1623L10.3356 3.12732L15.3531 7.61685L6.37345 17.6525L1.35596 13.1623Z" fill="#FC8C29"/>
<path d="M6.37431 18.7544C6.10466 18.7544 5.84194 18.6555 5.64034 18.474L0.623475 13.9838C0.170489 13.5781 0.132058 12.8819 0.537162 12.429L9.51686 2.39398C9.9207 1.94099 10.6169 1.90256 11.0711 2.30829L16.0892 6.79782C16.3066 6.9925 16.4376 7.2653 16.454 7.557C16.4698 7.84933 16.3696 8.13536 16.1749 8.35272L7.1946 18.3883C6.99992 18.6057 6.72712 18.7374 6.43542 18.7537C6.41526 18.7537 6.3951 18.7544 6.37431 18.7544ZM2.91234 13.0772L6.28863 16.0988L13.8004 7.70443L10.4228 4.68284L2.91234 13.0772Z" fill="#4C241D"/>
<path d="M20.5698 1.43382L2.521 21.6342V59.7895H49.8992V1.43382H20.5698ZM38.6766 12.4447H20.7217L25.2106 6.93958H43.1655L38.6766 12.4447Z" fill="#F53E28"/>
<path d="M49.8989 60.8902H2.52071C1.91211 60.8902 1.41943 60.3975 1.41943 59.7895V21.6342C1.41943 21.3639 1.51961 21.1025 1.69916 20.9002L19.748 0.700478C19.9578 0.46674 20.2558 0.333176 20.5696 0.333176H49.8989C50.5075 0.333176 50.9996 0.825852 50.9996 1.43382V59.7895C50.9996 60.3975 50.5075 60.8902 49.8989 60.8902ZM3.62136 58.6883H48.7976V2.5351H21.0622L3.62199 22.0544V58.6883H3.62136ZM38.6764 13.5454H20.7214C20.2968 13.5454 19.9093 13.3009 19.7266 12.9172C19.5439 12.5329 19.6 12.0787 19.8677 11.7492L24.3572 6.24404C24.5664 5.98699 24.8795 5.8383 25.2109 5.8383H43.1659C43.5905 5.8383 43.978 6.08275 44.1607 6.46643C44.3434 6.85075 44.2873 7.30562 44.0196 7.63512L39.5307 13.1402C39.3209 13.3967 39.0078 13.5454 38.6764 13.5454ZM23.0392 11.3434H38.1541L40.8474 8.04023H25.7326L23.0392 11.3434Z" fill="#4C241D"/>
<path d="M11.7428 54.1571C11.4864 54.1571 11.2299 54.0683 11.0214 53.8881C10.5621 53.4899 10.5124 52.7944 10.9105 52.3351L40.0881 18.668C40.4881 18.2075 41.183 18.1603 41.6417 18.5572C42.101 18.9553 42.1508 19.6509 41.7526 20.1102L12.575 53.7772C12.3571 54.0286 12.0502 54.1571 11.7428 54.1571Z" fill="#4C241D"/>
<path d="M40.9206 54.1571C40.6131 54.1571 40.3069 54.0286 40.0883 53.7772L10.9108 20.1102C10.5132 19.6509 10.5624 18.9553 11.0216 18.5572C11.4803 18.1603 12.1752 18.2075 12.5753 18.668L41.7528 52.3351C42.1504 52.7944 42.1012 53.4899 41.6419 53.8881C41.4334 54.0683 41.1763 54.1571 40.9206 54.1571Z" fill="#4C241D"/>
<path d="M12.4248 11.3434C12.1697 11.3434 11.9151 11.2558 11.7066 11.0776L7.9334 7.83357C7.47348 7.43729 7.42119 6.74112 7.81748 6.28057C8.21439 5.81876 8.90867 5.76836 9.37048 6.16339L13.143 9.40737C13.6036 9.80365 13.6559 10.4992 13.2596 10.9597C13.0422 11.213 12.7348 11.3434 12.4248 11.3434Z" fill="#4C241D"/>
<path d="M9.12137 14.6466C8.86684 14.6466 8.61168 14.5591 8.40315 14.3801L4.62995 11.1368C4.17003 10.7405 4.11711 10.0443 4.51402 9.58378C4.91031 9.1226 5.60396 9.07157 6.0664 9.4666L9.8396 12.7106C10.3001 13.1062 10.3524 13.8024 9.95552 14.2629C9.73879 14.5162 9.43134 14.6466 9.12137 14.6466Z" fill="#4C241D"/>
</svg>
