<svg width="52" height="61" viewBox="0 0 52 61" fill="none" xmlns="http://www.w3.org/2000/svg">
<path d="M3.14062 12.2188V15.2656L6.1875 59.9531H30.5625L33.6094 15.2656V12.2188H3.14062Z" fill="#FAE8D8"/>
<path d="M32.8477 26.4375L31.601 44.7188H5.14902L3.90234 26.4375H32.8477Z" fill="#93573D"/>
<path d="M5.17188 1.04688H31.5781C32.1168 1.04688 32.6335 1.26088 33.0144 1.64181C33.3954 2.02275 33.6094 2.5394 33.6094 3.07812V10.1875H3.14062V3.07812C3.14062 2.5394 3.35463 2.02275 3.73556 1.64181C4.1165 1.26088 4.63315 1.04688 5.17188 1.04688Z" fill="#93573D"/>
<path d="M3.14062 9.17188H33.6094C34.1481 9.17188 34.6648 9.38588 35.0457 9.76681C35.4266 10.1477 35.6406 10.6644 35.6406 11.2031V15.2656H1.10938V11.2031C1.10938 10.6644 1.32338 10.1477 1.70431 9.76681C2.08525 9.38588 2.6019 9.17187 3.14062 9.17188Z" fill="#794832"/>
<path d="M5.60225 47.8558L5.17188 47.7656L5.60225 47.8558Z" fill="#F5CBAA"/>
<path d="M9.23438 26.4375H5.17188C3.48913 26.4375 2.125 27.8016 2.125 29.4844C2.125 31.1671 3.48913 32.5312 5.17188 32.5312H9.23438C10.9171 32.5312 12.2812 31.1671 12.2812 29.4844C12.2812 27.8016 10.9171 26.4375 9.23438 26.4375Z" fill="#F5CBAA"/>
<path d="M9.23438 32.5312H5.17188C3.48913 32.5312 2.125 33.8954 2.125 35.5781C2.125 37.2609 3.48913 38.625 5.17188 38.625H9.23438C10.9171 38.625 12.2812 37.2609 12.2812 35.5781C12.2812 33.8954 10.9171 32.5312 9.23438 32.5312Z" fill="#F5CBAA"/>
<path d="M9.23438 38.625H5.17188C3.48913 38.625 2.125 39.9891 2.125 41.6719C2.125 43.3546 3.48913 44.7188 5.17188 44.7188H9.23438C10.9171 44.7188 12.2812 43.3546 12.2812 41.6719C12.2812 39.9891 10.9171 38.625 9.23438 38.625Z" fill="#F5CBAA"/>
<path d="M7.20312 44.7188H5.17188C3.48913 44.7188 2.125 46.0829 2.125 47.7656C2.125 49.4484 3.48913 50.8125 5.17188 50.8125H7.20312C8.88587 50.8125 10.25 49.4484 10.25 47.7656C10.25 46.0829 8.88587 44.7188 7.20312 44.7188Z" fill="#F5CBAA"/>
<path d="M50.875 36.0859V53.3516C50.875 53.4862 50.8215 53.6154 50.7263 53.7106C50.631 53.8059 50.5019 53.8594 50.3672 53.8594H45.9375C45.8455 53.8594 45.7552 53.8844 45.6763 53.9317L42.4619 55.8604C41.9132 56.1896 41.3015 56.4 40.6663 56.4778C40.0311 56.5556 39.3867 56.4992 38.7747 56.3121L31.3594 54.0457C31.2497 54.0122 31.1545 53.9425 31.0895 53.848C31.0245 53.7535 30.9934 53.6397 31.0012 53.5252L31.6378 44.1801L32.2472 35.2474C32.2548 35.1356 32.2252 35.0244 32.1631 34.9312L28.6823 29.7101C28.6359 29.6406 28.573 29.5836 28.4992 29.5442C28.4254 29.5048 28.3431 29.4843 28.2594 29.4844H22.9453C22.0026 29.4844 21.0984 29.1099 20.4318 28.4432C19.7651 27.7766 19.3906 26.8724 19.3906 25.9297C19.3906 24.9869 19.7651 24.0828 20.4318 23.4161C21.0984 22.7495 22.0026 22.375 22.9453 22.375H29.4547C29.5154 22.375 29.5756 22.386 29.6324 22.4074L33.0348 23.6839L33.1567 23.7296L37.5402 25.3727C37.6259 25.4049 37.7013 25.4596 37.7585 25.5311L45.6445 35.3877C45.6921 35.4471 45.7525 35.4951 45.8211 35.5281C45.8897 35.561 45.9649 35.5781 46.041 35.5781H50.3672C50.5019 35.5781 50.631 35.6316 50.7263 35.7269C50.8215 35.8221 50.875 35.9513 50.875 36.0859Z" fill="#F5CBAA"/>
<path d="M50.3672 34.5625H46.285L38.5522 24.8963C38.3806 24.6821 38.1543 24.5181 37.8973 24.4217L34.1003 22.9978L34.5581 16.2812H35.6406C35.91 16.2812 36.1683 16.1742 36.3588 15.9838C36.5492 15.7933 36.6562 15.535 36.6562 15.2656V11.2031C36.6554 10.5733 36.4598 9.95914 36.0961 9.44491C35.7324 8.93068 35.2186 8.54156 34.625 8.33094V3.07812C34.6241 2.27033 34.3027 1.49589 33.7316 0.924698C33.1604 0.353502 32.3859 0.0321908 31.5781 0.03125H5.17188C4.36408 0.0321908 3.58964 0.353502 3.01845 0.924698C2.44725 1.49589 2.12594 2.27033 2.125 3.07812V8.33094C1.53143 8.54156 1.01756 8.93068 0.653894 9.44491C0.290223 9.95914 0.0945618 10.5733 0.09375 11.2031V15.2656C0.09375 15.535 0.200753 15.7933 0.39122 15.9838C0.581686 16.1742 0.840015 16.2812 1.10938 16.2812H2.19178L2.86374 26.144C2.3557 26.4941 1.93423 26.9555 1.63142 27.493C1.3286 28.0306 1.15243 28.6302 1.1163 29.2461C1.08017 29.862 1.18505 30.4781 1.42294 31.0474C1.66083 31.6167 2.02547 32.1242 2.4891 32.5312C2.05562 32.9117 1.70832 33.3803 1.47039 33.9058C1.23246 34.4312 1.10939 35.0013 1.10939 35.5781C1.10939 36.1549 1.23246 36.7251 1.47039 37.2505C1.70832 37.7759 2.05562 38.2445 2.4891 38.625C2.05562 39.0055 1.70832 39.4741 1.47039 39.9995C1.23246 40.5249 1.10939 41.0951 1.10939 41.6719C1.10939 42.2487 1.23246 42.8188 1.47039 43.3442C1.70832 43.8697 2.05562 44.3383 2.4891 44.7188C1.90493 45.2321 1.48052 45.9024 1.26636 46.65C1.0522 47.3976 1.05731 48.191 1.28108 48.9358C1.50485 49.6806 1.93785 50.3454 2.52859 50.8512C3.11932 51.357 3.84292 51.6824 4.61328 51.7888L5.1748 60.0222C5.19229 60.2789 5.30657 60.5194 5.49455 60.6951C5.68253 60.8708 5.93019 60.9686 6.1875 60.9688H30.5625C30.8199 60.9687 31.0676 60.871 31.2557 60.6953C31.4438 60.5196 31.5582 60.2791 31.5757 60.0223L31.9001 55.273L38.4779 57.2833C39.226 57.5114 40.0136 57.5802 40.7898 57.4851C41.5661 57.39 42.3138 57.1332 42.9847 56.7313L46.0782 54.875H50.3672C50.7711 54.8746 51.1583 54.7139 51.4439 54.4283C51.7295 54.1427 51.8902 53.7555 51.8906 53.3516V36.0859C51.8902 35.682 51.7295 35.2948 51.4439 35.0092C51.1583 34.7236 50.7711 34.5629 50.3672 34.5625ZM5.17188 2.0625H31.5781C31.8474 2.0628 32.1055 2.1699 32.2959 2.3603C32.4863 2.5507 32.5934 2.80886 32.5938 3.07812V8.15625H4.15625V3.07812C4.15655 2.80886 4.26365 2.5507 4.45405 2.3603C4.64445 2.1699 4.90261 2.0628 5.17188 2.0625ZM2.125 11.2031C2.1253 10.9339 2.2324 10.6757 2.4228 10.4853C2.61321 10.2949 2.87136 10.1878 3.14062 10.1875H33.6094C33.8786 10.1878 34.1368 10.2949 34.3272 10.4853C34.5176 10.6757 34.6247 10.9339 34.625 11.2031V14.25H2.125V11.2031ZM4.22785 16.2812H32.5221L32.1151 22.2534L29.9912 21.4567C29.8199 21.3922 29.6383 21.3592 29.4552 21.3594H22.9453C21.8216 21.3608 20.7377 21.7757 19.9002 22.5249C19.0627 23.2741 18.5301 24.3053 18.4039 25.4219H5.17188C5.06396 25.4219 4.95732 25.4273 4.85145 25.4357L4.22785 16.2812ZM30.6526 43.7031H12.751C13.2217 42.8912 13.396 41.941 13.244 41.0148C13.0921 40.0886 12.6233 39.244 11.9178 38.625C12.3513 38.2445 12.6986 37.7759 12.9365 37.2505C13.1744 36.7251 13.2975 36.1549 13.2975 35.5781C13.2975 35.0013 13.1744 34.4312 12.9365 33.9058C12.6986 33.3803 12.3513 32.9117 11.9178 32.5312C12.6233 31.9123 13.0921 31.0676 13.244 30.1414C13.396 29.2153 13.2217 28.2651 12.751 27.4531H18.6377C18.9535 28.3434 19.5371 29.1141 20.3083 29.6596C21.0796 30.2051 22.0007 30.4987 22.9453 30.5H27.9878L31.2218 35.3513L30.6526 43.7031ZM5.17188 37.6094C4.68413 37.6085 4.21299 37.4321 3.84454 37.1125C3.4761 36.7929 3.23496 36.3514 3.1652 35.8687C3.09543 35.3859 3.20169 34.8942 3.46457 34.4834C3.72744 34.0725 4.12937 33.77 4.5969 33.631C4.7835 33.5754 4.97716 33.5471 5.17188 33.5469H9.23438C9.7731 33.5469 10.2898 33.7609 10.6707 34.1418C11.0516 34.5227 11.2656 35.0394 11.2656 35.5781C11.2656 36.1168 11.0516 36.6335 10.6707 37.0144C10.2898 37.3954 9.7731 37.6094 9.23438 37.6094H5.17188ZM5.17188 27.4531H9.23438C9.7731 27.4531 10.2898 27.6671 10.6707 28.0481C11.0516 28.429 11.2656 28.9457 11.2656 29.4844C11.2656 30.0231 11.0516 30.5398 10.6707 30.9207C10.2898 31.3016 9.7731 31.5156 9.23438 31.5156H5.17188C4.63315 31.5156 4.1165 31.3016 3.73556 30.9207C3.35463 30.5398 3.14062 30.0231 3.14062 29.4844C3.14062 28.9457 3.35463 28.429 3.73556 28.0481C4.1165 27.6671 4.63315 27.4531 5.17188 27.4531ZM3.14062 41.6719C3.14126 41.1334 3.35547 40.6171 3.73627 40.2363C4.11706 39.8555 4.63335 39.6413 5.17188 39.6406H9.23438C9.7731 39.6406 10.2898 39.8546 10.6707 40.2356C11.0516 40.6165 11.2656 41.1332 11.2656 41.6719C11.2656 42.2106 11.0516 42.7273 10.6707 43.1082C10.2898 43.4891 9.7731 43.7031 9.23438 43.7031H5.17188C4.63335 43.7025 4.11706 43.4883 3.73627 43.1075C3.35547 42.7267 3.14126 42.2104 3.14062 41.6719ZM3.14062 47.7656C3.14126 47.2271 3.35547 46.7108 3.73627 46.33C4.11706 45.9492 4.63335 45.735 5.17188 45.7344H7.20312C7.74185 45.7344 8.2585 45.9484 8.63943 46.3293C9.02037 46.7102 9.23438 47.2269 9.23438 47.7656C9.23438 48.3043 9.02037 48.821 8.63943 49.2019C8.2585 49.5829 7.74185 49.7969 7.20312 49.7969H5.17188C4.63335 49.7962 4.11706 49.582 3.73627 49.2012C3.35547 48.8204 3.14126 48.3041 3.14062 47.7656ZM29.6138 58.9375H7.13622L6.65139 51.8281H7.20312C7.91647 51.8288 8.61738 51.6414 9.23528 51.285C9.85317 50.9285 10.3662 50.4155 10.7228 49.7977C11.0793 49.1799 11.2668 48.479 11.2662 47.7656C11.2657 47.0523 11.0772 46.3517 10.7197 45.7344H30.5143L29.6138 58.9375ZM49.8594 52.8438H45.9375C45.6614 52.8438 45.3905 52.9188 45.1537 53.0608L41.9394 54.9893C41.5125 55.2451 41.0367 55.4085 40.5427 55.4691C40.0487 55.5296 39.5475 55.4858 39.0714 55.3407L32.0419 53.1922L33.2606 35.3162C33.2828 34.9811 33.1941 34.6479 33.0083 34.3681L29.5276 29.1471C29.3886 28.9381 29.2 28.7669 28.9788 28.6485C28.7575 28.5301 28.5104 28.4684 28.2594 28.4688H22.9453C22.2719 28.4688 21.6261 28.2012 21.1499 27.7251C20.6738 27.2489 20.4062 26.6031 20.4062 25.9297C20.4062 25.2563 20.6738 24.6105 21.1499 24.1343C21.6261 23.6581 22.2719 23.3906 22.9453 23.3906H29.3627L37.0535 26.2747L44.8518 36.0225C44.9942 36.2011 45.1751 36.3453 45.381 36.4442C45.587 36.5431 45.8126 36.5942 46.041 36.5938H49.8594V52.8438Z" fill="black"/>
</svg>
