<svg width="35" height="65" viewBox="0 0 35 65" fill="none" xmlns="http://www.w3.org/2000/svg">
<path d="M12.2424 9.36496H6.984C3.49951 9.36496 0.674805 12.1897 0.674805 15.6741L0.674932 49.3256C0.674932 52.8104 3.49989 55.6352 6.9845 55.6352H12.2423H22.7582H28.0166C31.5011 55.6352 34.3258 52.8105 34.3258 49.326V15.6745C34.3258 12.1898 31.5008 9.36496 28.0162 9.36496H22.7584H12.2424Z" fill="#FFD883"/>
<path d="M25.912 9.36533H9.08691V55.5636H25.912V9.36533Z" fill="#FDBE40"/>
<path d="M9.0874 12.6189C8.56144 12.6189 8.13525 13.045 8.13525 13.571V51.4287C8.13525 51.9547 8.56144 52.3808 9.0874 52.3808C9.61337 52.3808 10.0396 51.9547 10.0396 51.4287V13.571C10.0396 13.0452 9.61337 12.6189 9.0874 12.6189Z" fill="#E09F43"/>
<path d="M25.9126 12.6189C25.3866 12.6189 24.9604 13.045 24.9604 13.571V51.4287C24.9604 51.9547 25.3866 52.3808 25.9126 52.3808C26.4386 52.3808 26.8647 51.9547 26.8647 51.4287V13.571C26.8647 13.0452 26.4384 12.6189 25.9126 12.6189Z" fill="#E09F43"/>
<path d="M17.5003 0C16.9743 0 16.5481 0.426182 16.5481 0.952148L16.5479 64.0479C16.5479 64.5738 16.974 65 17.5 65C18.026 65 18.4522 64.5738 18.4522 64.0479L18.4524 0.952148C18.4524 0.426182 18.0262 0 17.5003 0Z" fill="#B31E48"/>
<path d="M12.2422 7.26171C12.2422 4.35778 14.5963 2.00369 17.5002 2.00369C20.4041 2.00369 22.7582 4.35778 22.7582 7.26171V57.7383C22.7582 60.6422 20.4041 62.9963 17.5002 62.9963C14.5963 62.9963 12.2422 60.6422 12.2422 57.7383V7.26171Z" fill="#DC1C4A"/>
<path d="M17.5 2.00369C17.0621 2.00369 16.6371 2.05816 16.2305 2.15896C18.5208 2.72694 20.2188 4.79565 20.2188 7.26171V57.7383C20.2188 60.2043 18.5208 62.273 16.2305 62.841C16.6371 62.9418 17.0621 62.9963 17.5 62.9963C20.4039 62.9963 22.758 60.6422 22.758 57.7383V7.26171C22.758 4.35778 20.4039 2.00369 17.5 2.00369Z" fill="#B31E48"/>
<path d="M16.974 25.0394L18.0254 25.0392C19.7101 25.0392 21.0808 23.6686 21.0808 21.984C21.0808 20.2992 19.7101 18.9286 18.025 18.9286L16.9738 18.929C16.3391 18.929 15.8228 18.4127 15.8228 17.7779C15.8228 17.1433 16.3391 16.6269 16.974 16.6269L18.0254 16.6268C19.7101 16.6268 21.0808 15.2562 21.0808 13.5716C21.0808 11.8869 19.7101 10.5162 18.0254 10.5162C17.4994 10.5162 17.0732 10.9424 17.0732 11.4683C17.0732 11.9943 17.4994 12.4205 18.0254 12.4205C18.6602 12.4205 19.1765 12.9368 19.1765 13.5716C19.1765 14.2062 18.6602 14.7225 18.0253 14.7225L16.9738 14.7226C15.2892 14.7226 13.9185 16.0932 13.9185 17.7779C13.9185 19.4627 15.2892 20.8333 16.9742 20.8333L18.0254 20.8329C18.6602 20.8329 19.1765 21.3492 19.1765 21.984C19.1765 22.6186 18.6602 23.1349 18.0253 23.1349L16.9738 23.1351C15.2892 23.1351 13.9185 24.5056 13.9185 26.1903C13.9185 27.875 15.2892 29.2457 16.9742 29.2457L18.0254 29.2453C18.6602 29.2453 19.1765 29.7616 19.1765 30.3964C19.1765 31.031 18.6602 31.5474 18.0253 31.5474L16.9738 31.5475C15.2892 31.5475 13.9185 32.9181 13.9185 34.6027C13.9185 36.2874 15.2892 37.6581 16.9738 37.6581H18.0254C18.6602 37.6581 19.1765 38.1744 19.1765 38.8091C19.1765 39.4437 18.6602 39.96 18.0253 39.96L16.9738 39.9602C15.2892 39.9602 13.9185 41.3309 13.9185 43.0155C13.9185 44.7002 15.2892 46.0708 16.9741 46.0708L18.0254 46.0705C18.6602 46.0705 19.1765 46.5869 19.1765 47.2216C19.1765 47.8563 18.6602 48.3726 18.0253 48.3726L16.9738 48.3727C15.2892 48.3727 13.9185 49.7433 13.9185 51.428C13.9185 53.1126 15.2892 54.4833 16.9738 54.4833C17.4998 54.4833 17.926 54.0572 17.926 53.5312C17.926 53.0052 17.4998 52.579 16.9738 52.579C16.3391 52.579 15.8228 52.0627 15.8228 51.428C15.8228 50.7933 16.3391 50.277 16.974 50.277L18.0254 50.2769C19.7101 50.2769 21.0808 48.9063 21.0808 47.2216C21.0808 45.537 19.7101 44.1662 18.0251 44.1662L16.9738 44.1665C16.3391 44.1665 15.8228 43.6502 15.8228 43.0155C15.8228 42.3808 16.3391 41.8645 16.974 41.8645L18.0254 41.8643C19.7101 41.8643 21.0808 40.4937 21.0808 38.8091C21.0808 37.1244 19.7101 35.7538 18.0254 35.7538H16.9738C16.3391 35.7538 15.8228 35.2375 15.8228 34.6027C15.8228 33.9681 16.3391 33.4518 16.974 33.4518L18.0254 33.4517C19.7101 33.4517 21.0808 32.0811 21.0808 30.3964C21.0808 28.7117 19.7101 27.341 18.025 27.341L16.9738 27.3414C16.3391 27.3414 15.8228 26.8251 15.8228 26.1903C15.8228 25.5558 16.3391 25.0394 16.974 25.0394Z" fill="#FDBE40"/>
<path d="M15.397 6.30957H12.3298C12.2733 6.61857 12.2422 6.93646 12.2422 7.26172V8.21387H15.397C15.9229 8.21387 16.3491 7.78768 16.3491 7.26172C16.3491 6.73575 15.9228 6.30957 15.397 6.30957Z" fill="#B31E48"/>
<path d="M9.70315 9.36496H12.2422L6.98382 9.36484L6.98242 9.36496H9.70315Z" fill="#E09F43"/>
<path d="M28.0158 9.36484H25.478C28.9621 9.3656 31.7863 12.1902 31.7863 15.6744V49.3259C31.7863 52.81 28.9623 55.6343 25.4783 55.6349H28.0162C31.5007 55.6349 34.3254 52.8102 34.3254 49.3258V15.6743C34.3254 12.1898 31.5004 9.36484 28.0158 9.36484Z" fill="#E09F43"/>
<path d="M6.9834 55.635L6.98454 55.6352L12.2423 55.635H9.70324H6.9834Z" fill="#E09F43"/>
</svg>
